<svg width="21" height="20" viewBox="0 0 21 20" fill="none" xmlns="http://www.w3.org/2000/svg">
<path d="M19.4153 0H0.585975C0.26236 0 0 0.262361 0 0.585975V4.11647C0 4.44009 0.26236 4.70245 0.585975 4.70245H1.17683V19.4138C1.17683 19.7374 1.43919 19.9998 1.76281 19.9998H18.2385C18.5621 19.9998 18.8244 19.7374 18.8244 19.4138V4.70245H19.4153C19.7389 4.70245 20.0013 4.44009 20.0013 4.11647V0.585975C20.0013 0.262361 19.7389 0 19.4153 0ZM17.6525 18.8278H2.34878V4.70245H17.6525V18.8278ZM18.8293 3.5305H1.17195V1.17195H18.8293V3.5305Z" fill="white"/>
</svg>
